<svg width="28" height="28" viewBox="0 0 28 28" fill="none" xmlns="http://www.w3.org/2000/svg">
<g id="Frame">
<g id="Group">
<path id="Vector" d="M7.83097 11.9752L10.3877 8.89937C10.4221 8.85795 10.448 8.81015 10.464 8.7587C10.4799 8.70725 10.4856 8.65317 10.4807 8.59953C10.4757 8.5459 10.4603 8.49376 10.4352 8.4461C10.4101 8.39844 10.3758 8.35619 10.3344 8.32176C10.2507 8.25224 10.1429 8.2188 10.0346 8.22879C9.92624 8.23877 9.82633 8.29138 9.75679 8.37503L7.56524 11.0116L7.08623 10.2335C7.02921 10.1408 6.93772 10.0746 6.8319 10.0495C6.72607 10.0243 6.61458 10.0422 6.52194 10.0992C6.4293 10.1562 6.36311 10.2477 6.33793 10.3535C6.31275 10.4593 6.33063 10.5708 6.38766 10.6635L7.16619 11.928C7.31341 12.167 7.6517 12.1909 7.83097 11.9752ZM6.38777 16.0775L7.1663 17.3421C7.31341 17.5811 7.6517 17.605 7.83097 17.3892L10.3877 14.3134C10.4221 14.272 10.448 14.2242 10.464 14.1727C10.4799 14.1213 10.4856 14.0672 10.4807 14.0135C10.4757 13.9599 10.4602 13.9078 10.4352 13.8601C10.4101 13.8124 10.3758 13.7702 10.3344 13.7358C10.293 13.7013 10.2452 13.6754 10.1937 13.6595C10.1423 13.6435 10.0882 13.6378 10.0346 13.6428C9.98093 13.6477 9.92879 13.6632 9.88113 13.6883C9.83347 13.7134 9.79122 13.7476 9.75679 13.789L7.56524 16.4256L7.08623 15.6475C7.058 15.6016 7.021 15.5618 6.97736 15.5302C6.93372 15.4986 6.88429 15.476 6.8319 15.4635C6.7795 15.4511 6.72516 15.449 6.67198 15.4576C6.61881 15.4661 6.56783 15.485 6.52197 15.5133C6.47611 15.5415 6.43626 15.5785 6.40469 15.6221C6.37313 15.6658 6.35047 15.7152 6.338 15.7676C6.32554 15.82 6.32352 15.8743 6.33206 15.9275C6.3406 15.9807 6.35953 16.0317 6.38777 16.0775ZM6.38777 21.5281L7.1663 22.7926C7.31341 23.0316 7.6517 23.0555 7.83097 22.8398L10.3877 19.7639C10.4572 19.6803 10.4906 19.5724 10.4807 19.4641C10.4707 19.3558 10.4181 19.2558 10.3344 19.1863C10.293 19.1519 10.2452 19.1259 10.1937 19.11C10.1423 19.094 10.0882 19.0884 10.0346 19.0933C9.92624 19.1033 9.82632 19.1559 9.75679 19.2396L7.56524 21.8761L7.08623 21.098C7.05834 21.0514 7.02148 21.0109 6.97779 20.9787C6.9341 20.9465 6.88444 20.9232 6.83171 20.9103C6.77898 20.8975 6.72421 20.8952 6.67059 20.9036C6.61697 20.9121 6.56555 20.9311 6.51933 20.9595C6.4731 20.988 6.43299 21.0253 6.40131 21.0694C6.36963 21.1135 6.34702 21.1634 6.33478 21.2163C6.32254 21.2692 6.32092 21.324 6.33002 21.3775C6.33911 21.431 6.35874 21.4822 6.38777 21.5281Z" fill="black"/>
<path id="Vector_2" d="M24.5273 23.155C24.4186 23.155 24.3142 23.1982 24.2373 23.2751C24.1604 23.352 24.1172 23.4563 24.1172 23.5651V26.5508C24.1172 26.8976 23.8351 27.1797 23.4883 27.1797H4.51172C4.16495 27.1797 3.88281 26.8976 3.88281 26.5508V6.09766C3.88281 5.87109 3.69917 6.5 3.47266 6.5C3.24614 6.5 3.0625 5.77343 3.0625 6V26.5508C3.0625 27.3499 3.71262 28 4.51172 28H23.4883C24.2874 28 24.9375 27.3499 24.9375 26.5508V23.5651C24.9375 23.4563 24.8943 23.352 24.8174 23.2751C24.7404 23.1982 24.6361 23.155 24.5273 23.155ZM23.4883 3.16045H21.4819V1.46562C21.4819 0.657508 20.8245 0 20.0163 0C19.2081 0 18.5507 0.657453 18.5507 1.46562V3.16045H15.4656V1.46562C15.4656 0.657453 14.8081 0 14 0C13.1919 0 12.5344 0.657453 12.5344 1.46562V3.16045H9.44929V1.46562C9.44929 0.657508 8.79184 0 7.98366 0C7.17555 0 6.51804 0.657453 6.51804 1.46562V3.16045H4.51172C3.71262 3.16045 3.0625 3.81057 3.0625 4.60966V6.66143C3.0625 6.888 3.24614 7.07159 3.47266 7.07159C3.69917 7.07159 3.88281 6.888 3.88281 6.66143V4.60966C3.88281 4.26289 4.16495 3.98076 4.51172 3.98076H6.51804V4.63203C6.51804 5.44015 7.17549 6.09766 7.98366 6.09766C8.79184 6.09766 9.44929 5.4402 9.44929 4.63203V3.98076H12.5344V4.63203C12.5344 5.44015 13.1918 6.09766 14 6.09766C14.8082 6.09766 15.4656 5.4402 15.4656 4.63203V3.98076H18.5507V4.63203C18.5507 5.44015 19.2082 6.09766 20.0163 6.09766C20.8245 6.09766 21.482 5.4402 21.482 4.63203V3.98076H23.4883C23.8351 3.98076 24.1172 4.26289 24.1172 4.60966V24C24.1172 24.2266 24.3008 24.5 24.5273 24.5C24.7539 24.5 24.9375 24.2266 24.9375 24V4.60966C24.9375 3.81057 24.2874 3.16045 23.4883 3.16045ZM8.62903 4.63203C8.62903 4.98788 8.33957 5.27734 7.98372 5.27734C7.62792 5.27734 7.33841 4.98788 7.33841 4.63203V1.46562C7.33841 1.10977 7.62787 0.820312 7.98372 0.820312C8.33957 0.820312 8.62903 1.10977 8.62903 1.46562V4.63203ZM14.6453 4.63203C14.6453 4.98788 14.3559 5.27734 14 5.27734C13.6441 5.27734 13.3547 4.98788 13.3547 4.63203V1.46562C13.3547 1.10977 13.6441 0.820312 14 0.820312C14.3559 0.820312 14.6453 1.10977 14.6453 1.46562V4.63203ZM20.6616 4.63203C20.6616 4.98788 20.3722 5.27734 20.0163 5.27734C19.6605 5.27734 19.371 4.98788 19.371 4.63203V1.46562C19.371 1.10977 19.6605 0.820312 20.0163 0.820312C20.3721 0.820312 20.6616 1.10977 20.6616 1.46562V4.63203Z" fill="black"/>
<path id="Vector_3" d="M12.1263 12.3147H20.767C21.4756 12.3147 22.0521 11.7382 22.0521 11.0295C22.0521 10.3209 21.4756 9.74438 20.767 9.74438H12.1263C11.4177 9.74438 10.8412 10.3209 10.8412 11.0295C10.8412 11.7382 11.4177 12.3147 12.1263 12.3147ZM12.1263 10.5647H20.767C21.0233 10.5647 21.2318 10.7732 21.2318 11.0295C21.2318 11.2859 21.0233 11.4944 20.767 11.4944H12.1263C11.87 11.4944 11.6615 11.2859 11.6615 11.0295C11.6615 10.7732 11.87 10.5647 12.1263 10.5647ZM12.1263 17.7404H20.767C21.4756 17.7404 22.0521 17.1639 22.0521 16.4553C22.0521 15.7466 21.4756 15.1701 20.767 15.1701H12.1263C11.4177 15.1701 10.8412 15.7466 10.8412 16.4553C10.8412 17.1639 11.4177 17.7404 12.1263 17.7404ZM12.1263 15.9904H20.767C21.0233 15.9904 21.2318 16.1989 21.2318 16.4553C21.2318 16.7116 21.0233 16.9201 20.767 16.9201H12.1263C11.87 16.9201 11.6615 16.7116 11.6615 16.4553C11.6615 16.1989 11.87 15.9904 12.1263 15.9904ZM12.1263 23.1661H20.767C21.4756 23.1661 22.0521 22.5896 22.0521 21.8809C22.0521 21.1723 21.4756 20.5958 20.767 20.5958H12.1263C11.4177 20.5958 10.8412 21.1723 10.8412 21.8809C10.8412 22.5896 11.4177 23.1661 12.1263 23.1661ZM12.1263 21.4161H20.767C21.0233 21.4161 21.2318 21.6246 21.2318 21.8809C21.2318 22.1372 21.0233 22.3458 20.767 22.3458H12.1263C11.87 22.3458 11.6615 22.1372 11.6615 21.8809C11.6615 21.6246 11.87 21.4161 12.1263 21.4161Z" fill="black"/>
</g>
</g>
</svg>
