<svg width="28" height="28" viewBox="0 0 28 28" fill="none" xmlns="http://www.w3.org/2000/svg">
<g id="Frame">
<g id="Group">
<path id="Vector" d="M9.74566 13.0042C9.69154 12.95 9.62725 12.907 9.55648 12.8776C9.48572 12.8483 9.40986 12.8332 9.33325 12.8332C9.25664 12.8332 9.18078 12.8483 9.11001 12.8776C9.03924 12.907 8.97496 12.95 8.92083 13.0042L6.00416 15.9209C5.94995 15.975 5.90693 16.0393 5.87758 16.1101C5.84824 16.1808 5.83313 16.2567 5.83313 16.3333C5.83313 16.4099 5.84824 16.4858 5.87758 16.5565C5.90693 16.6273 5.94995 16.6916 6.00416 16.7457L8.92083 19.6624C8.97488 19.7167 9.03914 19.7599 9.10992 19.7893C9.18069 19.8187 9.25659 19.8339 9.33325 19.8339C9.4099 19.8339 9.4858 19.8187 9.55658 19.7893C9.62736 19.7599 9.69162 19.7167 9.74566 19.6624C9.79988 19.6082 9.8429 19.544 9.87224 19.4732C9.90159 19.4024 9.9167 19.3266 9.9167 19.25C9.9167 19.1733 9.90159 19.0975 9.87224 19.0267C9.8429 18.9559 9.79988 18.8917 9.74566 18.8375L7.24141 16.3333L9.74566 13.829C9.79988 13.7749 9.8429 13.7106 9.87224 13.6399C9.90159 13.5691 9.9167 13.4932 9.9167 13.4166C9.9167 13.34 9.90159 13.2642 9.87224 13.1934C9.8429 13.1226 9.79988 13.0583 9.74566 13.0042ZM19.079 13.0042C19.0248 12.95 18.9605 12.9071 18.8898 12.8778C18.819 12.8485 18.7432 12.8334 18.6666 12.8334C18.59 12.8334 18.5141 12.8485 18.4434 12.8778C18.3726 12.9071 18.3083 12.95 18.2542 13.0042C18.2 13.0584 18.157 13.1227 18.1277 13.1934C18.0984 13.2642 18.0833 13.34 18.0833 13.4166C18.0833 13.4932 18.0984 13.5691 18.1277 13.6398C18.157 13.7106 18.2 13.7749 18.2542 13.829L20.7584 16.3333L18.2542 18.8375C18.2 18.8917 18.157 18.956 18.1277 19.0268C18.0984 19.0975 18.0833 19.1734 18.0833 19.25C18.0833 19.3265 18.0984 19.4024 18.1277 19.4732C18.157 19.5439 18.2 19.6082 18.2542 19.6624C18.3083 19.7165 18.3726 19.7595 18.4434 19.7888C18.5141 19.8181 18.59 19.8332 18.6666 19.8332C18.7432 19.8332 18.819 19.8181 18.8898 19.7888C18.9605 19.7595 19.0248 19.7165 19.079 19.6624L21.9957 16.7457C22.0499 16.6916 22.0929 16.6273 22.1222 16.5565C22.1516 16.4858 22.1667 16.4099 22.1667 16.3333C22.1667 16.2567 22.1516 16.1808 22.1222 16.1101C22.0929 16.0393 22.0499 15.975 21.9957 15.9209L19.079 13.0042ZM16.0107 12.3112C15.9421 12.2769 15.8675 12.2564 15.7911 12.251C15.7147 12.2455 15.6379 12.2552 15.5652 12.2794C15.4925 12.3036 15.4253 12.3419 15.3674 12.3921C15.3095 12.4423 15.2621 12.5034 15.2278 12.572L11.7278 19.572C11.6929 19.6406 11.6719 19.7154 11.666 19.7922C11.6601 19.8689 11.6694 19.9461 11.6935 20.0192C11.7176 20.0923 11.7559 20.16 11.8062 20.2182C11.8566 20.2765 11.918 20.3242 11.9868 20.3586C12.0557 20.393 12.1307 20.4134 12.2075 20.4187C12.2843 20.424 12.3614 20.4141 12.4343 20.3894C12.5073 20.3648 12.5746 20.3259 12.6325 20.2751C12.6903 20.2243 12.7375 20.1626 12.7714 20.0935L16.2714 13.0935C16.3057 13.0249 16.3262 12.9503 16.3316 12.8739C16.3371 12.7975 16.3274 12.7207 16.3032 12.648C16.279 12.5753 16.2407 12.5081 16.1905 12.4502C16.1403 12.3923 16.0792 12.3455 16.0107 12.3112Z" fill="black"/>
<path id="Vector_2" d="M23.9166 3.5H4.08329C2.47504 3.5 1.16663 4.80842 1.16663 6.41667V21.5833C1.16663 23.1916 2.47504 24.5 4.08329 24.5H23.9166C25.5249 24.5 26.8333 23.1916 26.8333 21.5833V6.41667C26.8333 4.80842 25.5249 3.5 23.9166 3.5ZM4.08329 4.66667H23.9166C24.8815 4.66667 25.6666 5.45183 25.6666 6.41667V8.16667H2.33329V6.41667C2.33329 5.45183 3.11846 4.66667 4.08329 4.66667ZM23.9166 23.3333H4.08329C3.11846 23.3333 2.33329 22.5482 2.33329 21.5833V9.33333H25.6666V21.5833C25.6666 22.5482 24.8815 23.3333 23.9166 23.3333Z" fill="black"/>
<path id="Vector_3" d="M4.08333 6.99992C4.4055 6.99992 4.66667 6.73875 4.66667 6.41659C4.66667 6.09442 4.4055 5.83325 4.08333 5.83325C3.76117 5.83325 3.5 6.09442 3.5 6.41659C3.5 6.73875 3.76117 6.99992 4.08333 6.99992Z" fill="black"/>
<path id="Vector_4" d="M6.41659 6.99992C6.73875 6.99992 6.99992 6.73875 6.99992 6.41659C6.99992 6.09442 6.73875 5.83325 6.41659 5.83325C6.09442 5.83325 5.83325 6.09442 5.83325 6.41659C5.83325 6.73875 6.09442 6.99992 6.41659 6.99992Z" fill="black"/>
<path id="Vector_5" d="M8.74996 6.99992C9.07213 6.99992 9.33329 6.73875 9.33329 6.41659C9.33329 6.09442 9.07213 5.83325 8.74996 5.83325C8.42779 5.83325 8.16663 6.09442 8.16663 6.41659C8.16663 6.73875 8.42779 6.99992 8.74996 6.99992Z" fill="black"/>
</g>
</g>
</svg>
