<svg width="28" height="28" viewBox="0 0 28 28" fill="none" xmlns="http://www.w3.org/2000/svg">
<g id="Frame" clip-path="url(#clip0_16_2592)">
<g id="Group">
<path id="Vector" d="M26.25 10.5C26.25 10.1519 26.1117 9.81806 25.8656 9.57192C25.6194 9.32578 25.2856 9.1875 24.9375 9.1875H24.5V7.63875C24.775 7.39343 24.9951 7.0928 25.1459 6.75656C25.2966 6.42031 25.3747 6.05601 25.375 5.6875V5.58425L23.0204 0.875H4.97962L2.625 5.58425V5.6875C2.62528 6.05601 2.70337 6.42031 2.85415 6.75656C3.00493 7.0928 3.22502 7.39343 3.5 7.63875V9.1875H3.0625C2.7144 9.1875 2.38056 9.32578 2.13442 9.57192C1.88828 9.81806 1.75 10.1519 1.75 10.5V24.5H0.875V25.8125C0.875 26.1606 1.01328 26.4944 1.25942 26.7406C1.50556 26.9867 1.8394 27.125 2.1875 27.125H25.8125C26.1606 27.125 26.4944 26.9867 26.7406 26.7406C26.9867 26.4944 27.125 26.1606 27.125 25.8125V24.5H26.25V10.5ZM19.838 1.75H22.4796L24.4974 5.7855C24.4724 6.24084 24.2707 6.66845 23.9352 6.97729C23.5997 7.28613 23.1568 7.4518 22.701 7.43902C22.2451 7.42625 21.8123 7.23604 21.4946 6.9089C21.1769 6.58176 20.9994 6.14352 21 5.6875L19.838 1.75ZM18.9245 1.75L20.125 5.74831C20.1111 6.21244 19.9135 6.65205 19.5755 6.97044C19.2375 7.28882 18.7868 7.4599 18.3227 7.44603C17.8586 7.43217 17.419 7.23449 17.1006 6.8965C16.7822 6.55851 16.6111 6.10788 16.625 5.64375L16.2312 1.75H18.9245ZM12.6459 1.75H15.3562L15.75 5.70806C15.7531 6.17219 15.5716 6.61853 15.2456 6.94889C14.9196 7.27926 14.4757 7.46658 14.0116 7.46966C13.5475 7.47273 13.1011 7.29131 12.7708 6.96529C12.4404 6.63928 12.2531 6.19538 12.25 5.73125L12.6459 1.75ZM11.7688 1.75L11.375 5.6875C11.3831 6.15163 11.2064 6.59995 10.8839 6.93384C10.5615 7.26773 10.1195 7.45984 9.65541 7.46791C9.19128 7.47597 8.74295 7.29933 8.40906 6.97684C8.07517 6.65436 7.88306 6.21244 7.875 5.74831L9.0755 1.75H11.7688ZM5.52038 1.75H8.162L7.01837 5.56194L7 5.6875C7.00058 6.14352 6.82312 6.58176 6.50542 6.9089C6.18772 7.23604 5.75486 7.42625 5.29902 7.43902C4.84317 7.4518 4.40035 7.28613 4.06483 6.97729C3.7293 6.66845 3.52759 6.24084 3.50262 5.7855L5.52038 1.75ZM5.25 8.3125C5.6836 8.31227 6.11039 8.20453 6.49214 7.99892C6.87389 7.7933 7.19871 7.49624 7.4375 7.13431C7.67663 7.49599 8.00156 7.79286 8.3833 7.99845C8.76505 8.20404 9.19174 8.31195 9.62532 8.31255C10.0589 8.31316 10.4859 8.20644 10.8682 8.00193C11.2505 7.79741 11.5763 7.50145 11.8164 7.14044C12.0559 7.50107 12.3809 7.7968 12.7625 8.00121C13.1441 8.20562 13.5704 8.31235 14.0033 8.31187C14.4362 8.3114 14.8622 8.20373 15.2433 7.99848C15.6245 7.79323 15.9488 7.49679 16.1875 7.13562C16.4264 7.49735 16.7513 7.79419 17.133 7.99957C17.5148 8.20494 17.9415 8.31244 18.375 8.31244C18.8085 8.31244 19.2352 8.20494 19.617 7.99957C19.9987 7.79419 20.3236 7.49735 20.5625 7.13562C20.8836 7.62565 21.3604 7.99327 21.916 8.17923C22.4716 8.36519 23.0736 8.35866 23.625 8.16069V22.75H4.375V8.15937C4.6558 8.25995 4.95173 8.31174 5.25 8.3125ZM2.625 10.5C2.625 10.384 2.67109 10.2727 2.75314 10.1906C2.83519 10.1086 2.94647 10.0625 3.0625 10.0625H3.5V23.625H24.5V10.0625H24.9375C25.0535 10.0625 25.1648 10.1086 25.2469 10.1906C25.3289 10.2727 25.375 10.384 25.375 10.5V24.5H2.625V10.5ZM26.25 25.8125C26.25 25.9285 26.2039 26.0398 26.1219 26.1219C26.0398 26.2039 25.9285 26.25 25.8125 26.25H2.1875C2.07147 26.25 1.96019 26.2039 1.87814 26.1219C1.79609 26.0398 1.75 25.9285 1.75 25.8125V25.375H26.25V25.8125Z" fill="black"/>
<path id="Vector_2" d="M9.70375 19.25H20.51L21.5018 11.8125H9.10875L8.67125 9.625H6.5625V10.5H7.95375L9.70375 19.25ZM20.5004 12.6875L19.7422 18.375H10.4212L9.28375 12.6875H20.5004ZM10.5 20.5625C10.5 20.8221 10.577 21.0758 10.7212 21.2917C10.8654 21.5075 11.0704 21.6758 11.3102 21.7751C11.5501 21.8744 11.814 21.9004 12.0686 21.8498C12.3232 21.7991 12.557 21.6741 12.7406 21.4906C12.9241 21.307 13.0491 21.0732 13.0998 20.8186C13.1504 20.564 13.1244 20.3001 13.0251 20.0602C12.9258 19.8204 12.7575 19.6154 12.5417 19.4712C12.3258 19.327 12.0721 19.25 11.8125 19.25C11.4644 19.25 11.1306 19.3883 10.8844 19.6344C10.6383 19.8806 10.5 20.2144 10.5 20.5625ZM11.8125 20.125C11.899 20.125 11.9836 20.1507 12.0556 20.1987C12.1275 20.2468 12.1836 20.3151 12.2167 20.3951C12.2498 20.475 12.2585 20.563 12.2416 20.6479C12.2247 20.7327 12.183 20.8107 12.1219 20.8719C12.0607 20.933 11.9827 20.9747 11.8979 20.9916C11.813 21.0085 11.725 20.9998 11.6451 20.9667C11.5651 20.9336 11.4968 20.8775 11.4487 20.8056C11.4007 20.7336 11.375 20.649 11.375 20.5625C11.375 20.4465 11.4211 20.3352 11.5031 20.2531C11.5852 20.1711 11.6965 20.125 11.8125 20.125ZM17.0625 20.5625C17.0625 20.8221 17.1395 21.0758 17.2837 21.2917C17.4279 21.5075 17.6329 21.6758 17.8727 21.7751C18.1126 21.8744 18.3765 21.9004 18.6311 21.8498C18.8857 21.7991 19.1195 21.6741 19.3031 21.4906C19.4866 21.307 19.6116 21.0732 19.6623 20.8186C19.7129 20.564 19.6869 20.3001 19.5876 20.0602C19.4883 19.8204 19.32 19.6154 19.1042 19.4712C18.8883 19.327 18.6346 19.25 18.375 19.25C18.0269 19.25 17.6931 19.3883 17.4469 19.6344C17.2008 19.8806 17.0625 20.2144 17.0625 20.5625ZM18.375 20.125C18.4615 20.125 18.5461 20.1507 18.6181 20.1987C18.69 20.2468 18.7461 20.3151 18.7792 20.3951C18.8123 20.475 18.821 20.563 18.8041 20.6479C18.7872 20.7327 18.7455 20.8107 18.6844 20.8719C18.6232 20.933 18.5452 20.9747 18.4604 20.9916C18.3755 21.0085 18.2875 20.9998 18.2076 20.9667C18.1276 20.9336 18.0593 20.8775 18.0112 20.8056C17.9632 20.7336 17.9375 20.649 17.9375 20.5625C17.9375 20.4465 17.9836 20.3352 18.0656 20.2531C18.1477 20.1711 18.259 20.125 18.375 20.125Z" fill="black"/>
</g>
</g>
<defs>
<clipPath id="clip0_16_2592">
<rect width="28" height="28" fill="white"/>
</clipPath>
</defs>
</svg>
