<svg width="28" height="28" viewBox="0 0 28 28" fill="none" xmlns="http://www.w3.org/2000/svg">
<g id="Frame">
<g id="Group">
<path id="Vector" d="M9.74579 13.0042C9.69166 12.95 9.62737 12.907 9.55661 12.8776C9.48584 12.8483 9.40998 12.8332 9.33337 12.8332C9.25676 12.8332 9.1809 12.8483 9.11013 12.8776C9.03936 12.907 8.97508 12.95 8.92095 13.0042L6.00429 15.9209C5.95007 15.975 5.90705 16.0393 5.87771 16.1101C5.84836 16.1808 5.83325 16.2567 5.83325 16.3333C5.83325 16.4099 5.84836 16.4858 5.87771 16.5565C5.90705 16.6273 5.95007 16.6916 6.00429 16.7457L8.92095 19.6624C8.975 19.7167 9.03926 19.7599 9.11004 19.7893C9.18082 19.8187 9.25671 19.8339 9.33337 19.8339C9.41002 19.8339 9.48592 19.8187 9.5567 19.7893C9.62748 19.7599 9.69174 19.7167 9.74579 19.6624C9.8 19.6082 9.84302 19.544 9.87237 19.4732C9.90171 19.4024 9.91682 19.3266 9.91682 19.25C9.91682 19.1733 9.90171 19.0975 9.87237 19.0267C9.84302 18.9559 9.8 18.8917 9.74579 18.8375L7.24154 16.3333L9.74579 13.829C9.8 13.7749 9.84302 13.7106 9.87237 13.6399C9.90171 13.5691 9.91682 13.4932 9.91682 13.4166C9.91682 13.34 9.90171 13.2642 9.87237 13.1934C9.84302 13.1226 9.8 13.0583 9.74579 13.0042ZM19.0791 13.0042C19.025 12.95 18.9607 12.9071 18.8899 12.8778C18.8191 12.8485 18.7433 12.8334 18.6667 12.8334C18.5901 12.8334 18.5143 12.8485 18.4435 12.8778C18.3727 12.9071 18.3084 12.95 18.2543 13.0042C18.2001 13.0584 18.1572 13.1227 18.1279 13.1934C18.0985 13.2642 18.0835 13.34 18.0835 13.4166C18.0835 13.4932 18.0985 13.5691 18.1279 13.6398C18.1572 13.7106 18.2001 13.7749 18.2543 13.829L20.7585 16.3333L18.2543 18.8375C18.2001 18.8917 18.1572 18.956 18.1279 19.0268C18.0985 19.0975 18.0835 19.1734 18.0835 19.25C18.0835 19.3265 18.0985 19.4024 18.1279 19.4732C18.1572 19.5439 18.2001 19.6082 18.2543 19.6624C18.3084 19.7165 18.3727 19.7595 18.4435 19.7888C18.5143 19.8181 18.5901 19.8332 18.6667 19.8332C18.7433 19.8332 18.8191 19.8181 18.8899 19.7888C18.9607 19.7595 19.025 19.7165 19.0791 19.6624L21.9958 16.7457C22.05 16.6916 22.093 16.6273 22.1224 16.5565C22.1517 16.4858 22.1668 16.4099 22.1668 16.3333C22.1668 16.2567 22.1517 16.1808 22.1224 16.1101C22.093 16.0393 22.05 15.975 21.9958 15.9209L19.0791 13.0042ZM16.0108 12.3112C15.9423 12.2769 15.8677 12.2564 15.7912 12.251C15.7148 12.2455 15.638 12.2552 15.5654 12.2794C15.4927 12.3036 15.4254 12.3419 15.3675 12.3921C15.3097 12.4423 15.2622 12.5034 15.228 12.572L11.728 19.572C11.693 19.6406 11.672 19.7154 11.6661 19.7922C11.6602 19.8689 11.6696 19.9461 11.6936 20.0192C11.7177 20.0923 11.756 20.16 11.8064 20.2182C11.8567 20.2765 11.9181 20.3242 11.987 20.3586C12.0558 20.393 12.1308 20.4134 12.2076 20.4187C12.2844 20.424 12.3615 20.4141 12.4345 20.3894C12.5074 20.3648 12.5747 20.3259 12.6326 20.2751C12.6904 20.2243 12.7377 20.1626 12.7715 20.0935L16.2715 13.0935C16.3058 13.0249 16.3263 12.9503 16.3317 12.8739C16.3372 12.7975 16.3275 12.7207 16.3033 12.648C16.2791 12.5753 16.2408 12.5081 16.1906 12.4502C16.1404 12.3923 16.0793 12.3455 16.0108 12.3112Z" fill="black"/>
<path id="Vector_2" d="M23.9167 3.5H4.08335C2.4751 3.5 1.16669 4.80842 1.16669 6.41667V21.5833C1.16669 23.1916 2.4751 24.5 4.08335 24.5H23.9167C25.5249 24.5 26.8334 23.1916 26.8334 21.5833V6.41667C26.8334 4.80842 25.5249 3.5 23.9167 3.5ZM4.08335 4.66667H23.9167C24.8815 4.66667 25.6667 5.45183 25.6667 6.41667V8.16667H2.33335V6.41667C2.33335 5.45183 3.11852 4.66667 4.08335 4.66667ZM23.9167 23.3333H4.08335C3.11852 23.3333 2.33335 22.5482 2.33335 21.5833V9.33333H25.6667V21.5833C25.6667 22.5482 24.8815 23.3333 23.9167 23.3333Z" fill="black"/>
<path id="Vector_3" d="M4.08333 7.00016C4.4055 7.00016 4.66667 6.739 4.66667 6.41683C4.66667 6.09466 4.4055 5.8335 4.08333 5.8335C3.76117 5.8335 3.5 6.09466 3.5 6.41683C3.5 6.739 3.76117 7.00016 4.08333 7.00016Z" fill="black"/>
<path id="Vector_4" d="M6.41671 7.00016C6.73887 7.00016 7.00004 6.739 7.00004 6.41683C7.00004 6.09466 6.73887 5.8335 6.41671 5.8335C6.09454 5.8335 5.83337 6.09466 5.83337 6.41683C5.83337 6.739 6.09454 7.00016 6.41671 7.00016Z" fill="black"/>
<path id="Vector_5" d="M8.75002 7.00016C9.07219 7.00016 9.33335 6.739 9.33335 6.41683C9.33335 6.09466 9.07219 5.8335 8.75002 5.8335C8.42785 5.8335 8.16669 6.09466 8.16669 6.41683C8.16669 6.739 8.42785 7.00016 8.75002 7.00016Z" fill="black"/>
</g>
</g>
</svg>
