<svg width="28" height="28" viewBox="0 0 28 28" fill="none" xmlns="http://www.w3.org/2000/svg">
<g id="Frame" clip-path="url(#clip0_16_2580)">
<g id="Group">
<path id="Vector" d="M15.2727 19.7273C15.6241 19.7273 15.909 19.4424 15.909 19.0909C15.909 18.7395 15.6241 18.4546 15.2727 18.4546C14.9213 18.4546 14.6364 18.7395 14.6364 19.0909C14.6364 19.4424 14.9213 19.7273 15.2727 19.7273Z" fill="black"/>
<path id="Vector_2" d="M4.45458 23.5456C4.80602 23.5456 5.09092 23.2607 5.09092 22.9093C5.09092 22.5578 4.80602 22.2729 4.45458 22.2729C4.10314 22.2729 3.81824 22.5578 3.81824 22.9093C3.81824 23.2607 4.10314 23.5456 4.45458 23.5456Z" fill="black"/>
<path id="Vector_3" d="M26.091 2.54541H4.45462C3.37279 2.54541 2.54553 3.37267 2.54553 4.4545V10.8182C2.54553 11.2 2.8001 11.4545 3.18188 11.4545C3.56365 11.4545 3.81822 11.1999 3.81822 10.8182V4.45455C3.81822 4.07272 4.07279 3.81821 4.45456 3.81821H26.0909C26.4727 3.81821 26.7273 4.07278 26.7273 4.45455V19.7273C26.7273 20.1091 26.4727 20.3636 26.0909 20.3636H10.8182C10.4364 20.3636 10.1819 20.6182 10.1819 21C10.1819 21.3818 10.4364 21.6363 10.8182 21.6363H12.091V23.5454C12.091 23.9272 11.8364 24.1818 11.4546 24.1818H10.8183C10.4364 24.1818 10.1819 24.4363 10.1819 24.8181C10.1819 25.1999 10.4365 25.4544 10.8183 25.4544H19.7274C20.1092 25.4544 20.3637 25.1999 20.3637 24.8181C20.3637 24.4363 20.1091 24.1818 19.7274 24.1818H19.091C18.7092 24.1818 18.4547 23.9272 18.4547 23.5454V21.6363H26.091C27.1728 21.6363 28.0001 20.8091 28.0001 19.7272V4.45455C28 3.37272 27.1728 2.54541 26.091 2.54541ZM13.2364 24.1818C13.3 23.9909 13.3636 23.8 13.3636 23.5455V21.6364H17.1818V23.5455C17.1818 23.8 17.2455 23.9909 17.3091 24.1818H13.2364Z" fill="black"/>
<path id="Vector_4" d="M24.8182 16.5452H10.8182C10.4363 16.5452 10.1818 16.7998 10.1818 17.1816C10.1818 17.5633 10.4364 17.8179 10.8182 17.8179H24.8182C25.2 17.8179 25.4545 17.5633 25.4545 17.1816C25.4545 16.7998 25.2 16.5452 24.8182 16.5452ZM7 12.7271H1.90909C0.827258 12.7271 0 13.5544 0 14.6361V23.5452C0 24.6271 0.827258 25.4543 1.90909 25.4543H7C8.08183 25.4543 8.90909 24.6271 8.90909 23.5452V14.6361C8.90909 13.5544 8.08183 12.7271 7 12.7271ZM7.63634 23.5452C7.63634 23.9271 7.38177 24.1816 7 24.1816H1.90909C1.52726 24.1816 1.27274 23.927 1.27274 23.5452V14.6361C1.27274 14.2543 1.52731 13.9998 1.90909 13.9998H7C7.38183 13.9998 7.63634 14.2544 7.63634 14.6361V23.5452Z" fill="black"/>
</g>
</g>
<defs>
<clipPath id="clip0_16_2580">
<rect width="28" height="28" fill="white"/>
</clipPath>
</defs>
</svg>
