<svg width="28" height="28" viewBox="0 0 28 28" fill="none" xmlns="http://www.w3.org/2000/svg">
<g id="Frame">
<g id="Group">
<path id="Vector" d="M21.4375 15.457C24.5182 12.2961 26.2447 8.05832 26.25 3.64447C26.2526 3.37905 26.1992 3.11606 26.0931 2.87272C25.9871 2.62937 25.8309 2.41116 25.6348 2.23234C25.4386 2.05352 25.2069 1.91813 24.9548 1.83503C24.7027 1.75193 24.4359 1.72298 24.1719 1.7501C19.8493 1.79984 15.7087 3.49769 12.5956 6.49697L9.62061 5.62197C9.10666 5.47517 8.55798 5.50835 8.06546 5.71602C7.57295 5.92368 7.16616 6.29337 6.91248 6.76385L4.91748 10.5132C4.82132 10.698 4.76789 10.9021 4.76114 11.1103C4.75439 11.3185 4.79449 11.5256 4.87848 11.7163C4.96246 11.9069 5.0882 12.0763 5.24639 12.2118C5.40459 12.3474 5.59121 12.4457 5.79248 12.4995L8.31248 13.1907C8.25123 13.3613 7.69998 15.0457 7.62998 15.2557C7.48802 15.6852 7.50667 16.1515 7.68248 16.5682L6.27373 16.8788C6.09393 16.9185 5.92816 17.006 5.79388 17.1319C5.6596 17.2579 5.56178 17.4178 5.51072 17.5947C5.45967 17.7716 5.45727 17.959 5.50377 18.1371C5.55028 18.3153 5.64397 18.4776 5.77498 18.607L9.40623 22.2382C9.53662 22.3667 9.69894 22.458 9.87642 22.5027C10.0539 22.5475 10.2401 22.544 10.4158 22.4927C10.5915 22.4415 10.7504 22.3442 10.8759 22.211C11.0014 22.0778 11.0892 21.9135 11.13 21.7351L11.4406 20.3351C11.8569 20.5129 12.324 20.5316 12.7531 20.3876L14.805 19.6876L15.4962 22.2426C15.5503 22.4427 15.6484 22.6281 15.7834 22.7854C15.9184 22.9427 16.0868 23.0679 16.2763 23.1517C16.4658 23.2356 16.6717 23.276 16.8789 23.2701C17.086 23.2642 17.2893 23.2121 17.4737 23.1176L21.1487 21.1838C21.625 20.9333 22.0006 20.5265 22.2125 20.0318C22.4244 19.5371 22.4597 18.9846 22.3125 18.467L21.4375 15.457ZM14.4812 18.8651L9.12186 13.5057C9.90028 11.247 11.1712 9.1896 12.8427 7.48255C14.5142 5.77551 16.5444 4.46152 18.7862 3.63572C20.0931 4.05988 21.2807 4.78776 22.2519 5.75966C23.223 6.73156 23.95 7.91981 24.3731 9.22697C23.5426 11.4667 22.224 13.4936 20.5131 15.1606C18.8022 16.8276 16.7418 18.093 14.4812 18.8651ZM24.1806 2.6251C24.3265 2.59967 24.4762 2.60634 24.6193 2.64465C24.7624 2.68296 24.8954 2.75199 25.0091 2.84693C25.1227 2.94188 25.2144 3.06045 25.2776 3.19441C25.3408 3.32837 25.374 3.47448 25.375 3.6226C25.3748 5.0697 25.1806 6.51024 24.7975 7.90572C23.8486 5.83553 22.1916 4.1723 20.125 3.21572C21.4463 2.84735 22.8091 2.64887 24.1806 2.6251ZM6.00248 11.6638C5.92966 11.6431 5.86235 11.6064 5.8054 11.5565C5.74845 11.5066 5.70328 11.4447 5.67315 11.3753C5.64302 11.3058 5.62867 11.2305 5.63115 11.1548C5.63363 11.0791 5.65287 11.0049 5.68748 10.9376L7.68248 7.1926C7.84045 6.89774 8.09453 6.66579 8.40252 6.53528C8.71051 6.40476 9.05388 6.38352 9.37561 6.4751L11.8956 7.2101C10.5004 8.71554 9.39011 10.4618 8.61873 12.3638L6.00248 11.6638ZM10.2725 21.5207C10.2673 21.5475 10.2548 21.5724 10.2365 21.5926C10.2181 21.6128 10.1945 21.6276 10.1683 21.6352C10.1421 21.6429 10.1142 21.6432 10.0879 21.6362C10.0615 21.6291 10.0376 21.6149 10.0187 21.5951L6.38748 17.9638C6.36736 17.9456 6.35282 17.9219 6.34553 17.8958C6.33824 17.8696 6.3385 17.8418 6.34627 17.8158C6.35404 17.7897 6.36901 17.7664 6.38946 17.7485C6.40991 17.7305 6.435 17.7188 6.46186 17.7145L8.24686 17.3163L10.6706 19.7357L10.2725 21.5207ZM12.46 19.5345C12.2878 19.5945 12.1021 19.6042 11.9246 19.5623C11.7472 19.5205 11.5853 19.4288 11.4581 19.2982L8.68436 16.5245C8.55598 16.3967 8.46553 16.2358 8.42306 16.0597C8.38058 15.8836 8.38774 15.6992 8.44373 15.527L8.81561 14.4376L13.5625 19.1757L12.46 19.5345ZM20.7287 20.4095L17.0625 22.3126C16.9953 22.348 16.921 22.3679 16.845 22.3708C16.7691 22.3737 16.6935 22.3595 16.6238 22.3293C16.5541 22.2991 16.4921 22.2536 16.4423 22.1961C16.3925 22.1387 16.3563 22.0709 16.3362 21.9976L15.6231 19.3726C17.5073 18.6128 19.2396 17.5207 20.7375 16.1482L21.4637 18.7032C21.5527 19.0242 21.5297 19.366 21.3985 19.6721C21.2673 19.9783 21.0357 20.2307 20.7419 20.3876L20.7287 20.4095ZM5.24998 19.972C5.33236 19.8902 5.37888 19.779 5.37929 19.6629C5.3797 19.5468 5.33397 19.4353 5.25217 19.3529C5.17037 19.2705 5.05919 19.224 4.94309 19.2236C4.82699 19.2232 4.71549 19.2689 4.63311 19.3507L1.87686 22.1026C1.79537 22.1846 1.74963 22.2955 1.74963 22.411C1.74963 22.5266 1.79537 22.6375 1.87686 22.7195C1.91753 22.7605 1.96591 22.793 2.01923 22.8152C2.07254 22.8374 2.12973 22.8489 2.18748 22.8489C2.24524 22.8489 2.30242 22.8374 2.35573 22.8152C2.40905 22.793 2.45743 22.7605 2.49811 22.7195L5.24998 19.972ZM6.06811 21.9145C5.98613 21.833 5.87525 21.7872 5.75967 21.7872C5.64409 21.7872 5.5332 21.833 5.45123 21.9145L2.38873 24.977C2.31706 25.0607 2.2796 25.1683 2.28386 25.2784C2.28811 25.3885 2.33376 25.493 2.41167 25.5709C2.48959 25.6488 2.59404 25.6945 2.70414 25.6987C2.81425 25.703 2.92191 25.6655 3.00561 25.5938L6.06811 22.5313C6.14959 22.4494 6.19533 22.3385 6.19533 22.2229C6.19533 22.1073 6.14959 21.9964 6.06811 21.9145ZM8.01061 22.7501L5.24998 25.4845C5.20919 25.525 5.17677 25.5731 5.15459 25.6262C5.1324 25.6792 5.12088 25.7361 5.12067 25.7935C5.12047 25.851 5.13159 25.908 5.1534 25.9612C5.17522 26.0144 5.20729 26.0627 5.24779 26.1035C5.2883 26.1443 5.33644 26.1767 5.38947 26.1989C5.4425 26.2211 5.49939 26.2326 5.55687 26.2328C5.61436 26.233 5.67132 26.2219 5.72451 26.2001C5.77769 26.1783 5.82606 26.1462 5.86686 26.1057L8.61873 23.3538C8.67375 23.2695 8.69801 23.1688 8.68742 23.0687C8.67683 22.9686 8.63203 22.8752 8.56059 22.8043C8.48914 22.7333 8.39542 22.6892 8.29523 22.6793C8.19504 22.6695 8.09452 22.6945 8.01061 22.7501Z" fill="black"/>
<path id="Vector_2" d="M21.735 9.5377C21.7831 6.67207 18.1431 5.1627 16.1481 7.22333C15.5363 7.8382 15.1928 8.67031 15.1928 9.5377C15.1928 10.4051 15.5363 11.2372 16.1481 11.8521C18.1431 13.9127 21.7831 12.4033 21.735 9.5377ZM18.4625 11.9352C15.295 11.839 15.295 7.23645 18.4625 7.1227C21.63 7.23645 21.63 11.839 18.4625 11.9352ZM14.5206 12.8452L12.8012 14.5646C12.7386 14.6265 12.6962 14.706 12.6795 14.7924C12.6627 14.8789 12.6725 14.9684 12.7075 15.0492C12.7425 15.1301 12.801 15.1985 12.8755 15.2455C12.95 15.2925 13.0369 15.3159 13.125 15.3127C13.2397 15.3122 13.3497 15.2667 13.4312 15.1858L15.1506 13.4665C15.1914 13.4251 15.2236 13.3761 15.2455 13.3223C15.2673 13.2684 15.2784 13.2108 15.278 13.1527C15.2776 13.0946 15.2657 13.0372 15.2431 12.9837C15.2205 12.9302 15.1876 12.8816 15.1462 12.8408C15.1048 12.8 15.0559 12.7678 15.002 12.7459C14.9482 12.7241 14.8906 12.713 14.8325 12.7134C14.7744 12.7138 14.717 12.7257 14.6634 12.7483C14.6099 12.7709 14.5614 12.8038 14.5206 12.8452Z" fill="black"/>
</g>
</g>
</svg>
