<svg width="28" height="28" viewBox="0 0 28 28" fill="none" xmlns="http://www.w3.org/2000/svg">
<g id="Frame">
<g id="Group">
<path id="Vector" d="M0.5075 25.5806C0.460311 25.6534 0.436303 25.7388 0.438647 25.8255C0.44099 25.9122 0.469574 25.9961 0.520625 26.0662C0.60375 26.1844 0.739375 26.2544 0.879375 26.2544C0.91 26.2544 0.940625 26.2544 0.975625 26.2456L4.99625 25.3531C6.15563 25.9437 7.455 26.2544 8.75875 26.2544C13.2956 26.2544 16.9925 22.5969 17.0625 18.0731C19.0313 18.6069 21.1881 18.4056 23.0169 17.4781L27.0375 18.3662C27.0681 18.375 27.0988 18.375 27.1338 18.375C27.2738 18.375 27.4094 18.305 27.4925 18.1869C27.5931 18.0425 27.5975 17.85 27.5056 17.7012L25.865 15.1069C26.9721 13.6566 27.5717 11.8826 27.5713 10.0581C27.5713 5.47311 23.8438 1.74561 19.2588 1.74561C14.6738 1.74561 11.025 5.40311 10.955 9.92248C10.255 9.72998 9.52 9.62061 8.75875 9.62061C4.165 9.62498 0.4375 13.3525 0.4375 17.9375C0.4375 19.7619 1.04125 21.5425 2.14813 22.9862L0.5075 25.5806ZM19.25 2.62498C23.3494 2.62498 26.6875 5.96311 26.6875 10.0625C26.6875 11.7906 26.0838 13.475 24.9813 14.8006C24.8588 14.945 24.8456 15.155 24.9463 15.3125L26.1931 17.2812L23.0431 16.5856C22.9425 16.5637 22.8331 16.5769 22.7413 16.625C20.9956 17.5525 18.8913 17.7319 17.0188 17.1456C16.7213 13.9912 14.6475 11.3444 11.8125 10.2156C11.8125 10.1631 11.8081 10.1106 11.8081 10.0581C11.8081 5.95873 15.1463 2.62061 19.2456 2.62061L19.25 2.62498ZM1.3125 17.9375C1.3125 13.8381 4.65063 10.5 8.75 10.5C12.8494 10.5 16.1875 13.8381 16.1875 17.9375C16.1875 22.0369 12.8494 25.375 8.75 25.375C7.53375 25.375 6.32625 25.0731 5.25438 24.5C5.19121 24.4658 5.12057 24.4477 5.04875 24.4475C5.01813 24.4475 4.98313 24.4475 4.9525 24.4562L1.80688 25.1519L3.05375 23.1831C3.15438 23.0212 3.14125 22.8156 3.02313 22.6712C1.92063 21.3412 1.31688 19.6569 1.31688 17.9287L1.3125 17.9375Z" fill="black"/>
<path id="Vector_2" d="M8.75 21.875C9.11244 21.875 9.40625 21.5812 9.40625 21.2188C9.40625 20.8563 9.11244 20.5625 8.75 20.5625C8.38756 20.5625 8.09375 20.8563 8.09375 21.2188C8.09375 21.5812 8.38756 21.875 8.75 21.875Z" fill="black"/>
<path id="Vector_3" d="M8.75 14.4375C9.47187 14.4375 10.0625 15.0281 10.0625 15.75C10.0625 16.4719 9.47187 17.0625 8.75 17.0625C8.50937 17.0625 8.3125 17.2594 8.3125 17.5V19.6875H9.1875V17.8938C9.59303 17.811 9.96675 17.6148 10.2653 17.3281C10.5638 17.0415 10.7748 16.676 10.8739 16.2741C10.973 15.8722 10.956 15.4505 10.825 15.0579C10.694 14.6653 10.4542 14.318 10.1337 14.0562C9.8131 13.7944 9.42484 13.6289 9.01397 13.5789C8.60311 13.529 8.18651 13.5966 7.81255 13.774C7.43859 13.9514 7.12263 14.2312 6.90136 14.581C6.68009 14.9307 6.56258 15.3361 6.5625 15.75H7.4375C7.4375 15.0281 8.02813 14.4375 8.75 14.4375ZM15.75 7H22.75V7.875H15.75V7ZM15.75 9.625H22.75V10.5H15.75V9.625ZM17.5 12.25H22.75V13.125H17.5V12.25Z" fill="black"/>
</g>
</g>
</svg>
