<svg width="28" height="28" viewBox="0 0 28 28" fill="none" xmlns="http://www.w3.org/2000/svg">
<g id="Frame" clip-path="url(#clip0_16_2597)">
<g id="Group">
<path id="Vector" d="M25.7335 7.2095C25.7191 6.45354 25.7054 5.7394 25.7054 5.04851C25.7054 4.78858 25.6022 4.53929 25.4184 4.3555C25.2346 4.1717 24.9853 4.06844 24.7254 4.06844C20.5339 4.06844 17.3427 2.86387 14.6826 0.277521C14.4997 0.0995668 14.2546 0 13.9994 0C13.7442 0 13.4991 0.0995668 13.3161 0.277521C10.6564 2.86387 7.46564 4.06844 3.27446 4.06844C3.01453 4.06844 2.76524 4.1717 2.58144 4.3555C2.39765 4.53929 2.29439 4.78858 2.29439 5.04851C2.29439 5.73953 2.2808 6.45393 2.26629 7.21003C2.13196 14.2451 1.94797 23.88 13.6784 27.946C13.8863 28.0181 14.1124 28.0181 14.3203 27.946C26.0516 23.8799 25.8679 14.2447 25.7335 7.2095ZM13.9995 25.98C3.93908 22.3253 4.09119 14.3195 4.22618 7.2474C4.23428 6.82296 4.24212 6.41159 4.24761 6.00833C8.17312 5.84263 11.3122 4.65308 13.9995 2.31215C16.6869 4.65308 19.8266 5.84276 23.7523 6.00833C23.7578 6.41146 23.7657 6.82257 23.7738 7.24675C23.9086 14.3191 24.0606 22.3252 13.9995 25.98Z" fill="black"/>
<path id="Vector_2" d="M17.3745 10.5955L12.6441 15.3256L10.6256 13.3071C10.4407 13.1284 10.1931 13.0295 9.93598 13.0317C9.6789 13.0339 9.43296 13.137 9.25117 13.3188C9.06939 13.5006 8.96631 13.7465 8.96415 14.0036C8.96198 14.2607 9.06092 14.5083 9.23962 14.6932L11.9512 17.4047C12.0421 17.4958 12.1501 17.5681 12.269 17.6173C12.3879 17.6666 12.5154 17.6918 12.6441 17.6917C12.7728 17.6918 12.9003 17.6666 13.0192 17.6173C13.1382 17.5681 13.2462 17.4958 13.3371 17.4047L18.7603 11.9816C18.8513 11.8906 18.9236 11.7826 18.9728 11.6637C19.0221 11.5448 19.0475 11.4174 19.0475 11.2887C19.0475 11.16 19.0222 11.0325 18.9729 10.9136C18.9236 10.7947 18.8514 10.6867 18.7604 10.5957C18.5767 10.4119 18.3274 10.3086 18.0675 10.3086C17.8076 10.3086 17.5583 10.4118 17.3745 10.5955Z" fill="black"/>
</g>
</g>
<defs>
<clipPath id="clip0_16_2597">
<rect width="28" height="28" fill="white"/>
</clipPath>
</defs>
</svg>
