<svg width="28" height="28" viewBox="0 0 28 28" fill="none" xmlns="http://www.w3.org/2000/svg">
<g id="Frame">
<g id="Group">
<path id="Vector" d="M27.4892 20.6172C27.1934 19.512 26.0444 18.8404 24.8735 19.0859L16.713 20.8184C16.8736 20.377 16.8739 19.8932 16.714 19.4516C16.5541 19.01 16.244 18.6386 15.838 18.4024L11.1076 15.6707C10.9178 15.5522 10.7394 15.4161 10.5749 15.2644C10.1593 14.9051 9.64195 14.4583 8.67781 14.3555C7.7618 14.2581 6.56961 14.4731 4.95906 15.0303C4.9053 14.6888 4.73148 14.3776 4.46885 14.1528C4.20621 13.928 3.87198 13.8042 3.52625 13.8037H1.88781C1.5033 13.8041 1.13466 13.9571 0.862766 14.2289C0.590874 14.5008 0.437934 14.8695 0.4375 15.254V23.3155C0.437934 23.7 0.590874 24.0686 0.862766 24.3405C1.13466 24.6124 1.5033 24.7654 1.88781 24.7658H3.52133C3.90181 24.7653 4.26688 24.6154 4.538 24.3485C4.80913 24.0816 4.96465 23.7189 4.97109 23.3384C6.27594 23.1552 7.93352 24.1013 9.54023 25.019C10.9249 25.8098 12.2451 26.5639 13.3481 26.5639C13.5556 26.5656 13.7622 26.5356 13.9606 26.4748L25.9656 23.2581C26.5177 23.1097 26.9883 22.7482 27.274 22.253C27.5597 21.7578 27.6371 21.1694 27.4892 20.6172ZM3.52133 23.8908H1.88781C1.73527 23.8906 1.58903 23.83 1.48117 23.7221C1.3733 23.6143 1.31264 23.468 1.3125 23.3155V15.254C1.31264 15.1015 1.3733 14.9552 1.48117 14.8473C1.58903 14.7395 1.73527 14.6788 1.88781 14.6787H3.52133C3.67387 14.6788 3.82011 14.7395 3.92798 14.8473C4.03584 14.9552 4.0965 15.1015 4.09664 15.254V23.3155C4.0965 23.468 4.03584 23.6143 3.92798 23.7221C3.82011 23.83 3.67387 23.8906 3.52133 23.8908ZM25.7392 22.4142L13.7266 25.632L13.7063 25.6381C12.8625 25.9077 11.3947 25.0699 9.97555 24.2594C8.28406 23.2925 6.54063 22.2983 4.97328 22.4547V15.9518C8.54711 14.6699 9.28648 15.3081 10.0045 15.9261C10.2101 16.1148 10.4336 16.2831 10.6717 16.4287L15.4022 19.1598C15.5299 19.2339 15.6418 19.3324 15.7314 19.4498C15.8211 19.5671 15.8867 19.701 15.9246 19.8437C15.9625 19.9864 15.972 20.1352 15.9524 20.2816C15.9328 20.428 15.8845 20.569 15.8104 20.6968C15.7363 20.8245 15.6378 20.9364 15.5204 21.026C15.4031 21.1157 15.2692 21.1813 15.1265 21.2192C14.9838 21.2571 14.835 21.2665 14.6886 21.247C14.5422 21.2274 14.4012 21.1791 14.2734 21.105L10.3239 18.8251C10.2237 18.7707 10.1062 18.7575 9.99643 18.7885C9.88667 18.8194 9.79333 18.892 9.73629 18.9907C9.67925 19.0895 9.66302 19.2066 9.69106 19.3171C9.7191 19.4277 9.78919 19.5229 9.88641 19.5825L13.8359 21.863C14.1386 22.0382 14.4821 22.1304 14.8318 22.1304C15.1456 22.1299 15.455 22.0562 15.7352 21.9149C15.7558 21.9135 15.7763 21.9108 15.7965 21.9067L25.0529 19.9467C25.7808 19.7925 26.4638 20.1792 26.6427 20.8458C26.7299 21.1733 26.6839 21.5221 26.5146 21.8158C26.3452 22.1095 26.0664 22.324 25.7392 22.4126V22.4142ZM3.43383 16.2586C3.43426 16.403 3.39183 16.5443 3.31191 16.6646C3.23198 16.7848 3.11817 16.8787 2.98487 16.9342C2.85157 16.9897 2.70479 17.0045 2.56312 16.9765C2.42144 16.9486 2.29125 16.8792 2.18903 16.7772C2.0868 16.6752 2.01715 16.5452 1.98888 16.4036C1.96062 16.262 1.97501 16.1152 2.03025 15.9817C2.08548 15.8483 2.17907 15.7343 2.29916 15.6541C2.41925 15.5739 2.56044 15.5312 2.70484 15.5313C2.89777 15.5317 3.08269 15.6084 3.21926 15.7447C3.35583 15.8809 3.43296 16.0657 3.43383 16.2586ZM12.0712 11.4521H12.8116C12.9584 11.9796 13.1688 12.4872 13.4384 12.9637L12.915 13.4876C12.7777 13.6231 12.6944 13.804 12.6809 13.9965C12.6673 14.1889 12.7243 14.3797 12.8412 14.5332C13.304 15.1474 13.8505 15.6937 14.4648 16.1563C14.6182 16.2735 14.809 16.3308 15.0015 16.3173C15.194 16.3038 15.375 16.2205 15.5105 16.0831L16.0344 15.5597C16.5108 15.8293 17.0182 16.0401 17.5454 16.1875V16.928C17.5442 17.1209 17.6134 17.3077 17.7401 17.4532C17.8667 17.5988 18.0421 17.6932 18.2334 17.7188C18.9952 17.8261 19.7684 17.8261 20.5302 17.7188C20.7218 17.6933 20.8974 17.5988 21.0242 17.453C21.151 17.3072 21.2202 17.1201 21.2188 16.9269V16.1875C21.7461 16.0406 22.2537 15.8301 22.7303 15.5608L23.2537 16.0842C23.3891 16.2216 23.5701 16.3049 23.7626 16.3184C23.9552 16.3319 24.146 16.2746 24.2993 16.1574C24.9134 15.6945 25.4596 15.1478 25.9219 14.5332C26.0389 14.3798 26.0959 14.189 26.0825 13.9966C26.069 13.8041 25.9858 13.6232 25.8486 13.4876L25.3247 12.9637C25.5943 12.4874 25.8047 11.9799 25.9514 11.4527H26.6924C26.8854 11.4539 27.0722 11.3848 27.2178 11.2581C27.3634 11.1314 27.4578 10.956 27.4832 10.7647C27.5905 10.0028 27.5905 9.22969 27.4832 8.46782C27.4576 8.27662 27.3632 8.10131 27.2176 7.97476C27.0721 7.8482 26.8853 7.7791 26.6924 7.7804H25.9509C25.8038 7.25297 25.5932 6.74539 25.3236 6.26884L25.8475 5.74548C25.984 5.61021 26.0668 5.42998 26.0805 5.23828C26.0942 5.04657 26.0378 4.85642 25.9219 4.70313C25.4593 4.08856 24.9128 3.542 24.2982 3.07946C24.1449 2.96226 23.9541 2.90503 23.7615 2.91852C23.569 2.93201 23.3881 3.0153 23.2526 3.15274L22.7292 3.67665C22.2531 3.40646 21.7459 3.1951 21.2188 3.0472V2.30673C21.2201 2.11377 21.151 1.92696 21.0244 1.78128C20.8979 1.63561 20.7226 1.54108 20.5313 1.5154C19.7694 1.40925 18.9964 1.40925 18.2345 1.5154C18.0433 1.54119 17.868 1.63576 17.7415 1.7814C17.615 1.92705 17.5458 2.1138 17.547 2.30673V3.0472C17.0192 3.1942 16.5113 3.40483 16.0344 3.67446L15.5105 3.15056C15.3749 3.01332 15.1939 2.93018 15.0015 2.9167C14.809 2.90321 14.6183 2.96029 14.4648 3.07728C13.8501 3.54048 13.3036 4.08779 12.8412 4.70313C12.7241 4.85656 12.6671 5.0474 12.6807 5.23989C12.6943 5.43237 12.7776 5.6133 12.915 5.74876L13.4384 6.27212C13.1687 6.74859 12.9583 7.2562 12.8116 7.78368H12.0712C11.8782 7.78236 11.6914 7.85145 11.5457 7.978C11.4001 8.10454 11.3055 8.27986 11.2798 8.4711C11.1726 9.23297 11.1726 10.0061 11.2798 10.768C11.3061 10.9587 11.401 11.1333 11.5466 11.2592C11.6922 11.3851 11.8787 11.4537 12.0712 11.4521ZM12.1373 8.65649H13.1523C13.2519 8.65651 13.3484 8.62261 13.4261 8.56037C13.5037 8.49813 13.5578 8.41128 13.5795 8.31415C13.7285 7.64785 13.992 7.01245 14.3582 6.43618C14.4114 6.35222 14.4345 6.25263 14.4235 6.15383C14.4126 6.05502 14.3683 5.96288 14.298 5.89259L13.5805 5.17454C13.9718 4.66408 14.4285 4.20734 14.939 3.8161L15.6565 4.53415C15.7268 4.60458 15.8191 4.64892 15.918 4.65986C16.0169 4.67079 16.1166 4.64767 16.2006 4.59431C16.7769 4.22813 17.4123 3.96464 18.0786 3.81556C18.1753 3.79389 18.2617 3.74005 18.3238 3.66286C18.3859 3.58567 18.4199 3.4897 18.4204 3.39063V2.3729C19.0581 2.28978 19.7039 2.28978 20.3416 2.3729V3.39063C20.3415 3.49015 20.3755 3.58669 20.4377 3.66434C20.4999 3.74199 20.5868 3.7961 20.6839 3.81774C21.3499 3.96596 21.9851 4.22852 22.5613 4.59376C22.6453 4.64712 22.745 4.67024 22.844 4.65931C22.9429 4.64837 23.0351 4.60403 23.1055 4.5336L23.8235 3.81556C24.3337 4.20696 24.7902 4.66368 25.1814 5.17399L24.4639 5.89204C24.3936 5.96233 24.3494 6.05447 24.3384 6.15328C24.3275 6.25209 24.3505 6.35167 24.4037 6.43564C24.77 7.01149 25.0335 7.64654 25.1825 8.31251C25.2043 8.40954 25.2584 8.49626 25.336 8.55839C25.4137 8.62052 25.5102 8.65435 25.6096 8.65431H26.6246C26.7085 9.29195 26.7085 9.93783 26.6246 10.5755H25.6091C25.5097 10.5756 25.4134 10.6094 25.3358 10.6716C25.2583 10.7337 25.2042 10.8203 25.1825 10.9173C25.0336 11.5841 24.7701 12.2201 24.4037 12.7969C24.3505 12.8808 24.3275 12.9804 24.3384 13.0792C24.3494 13.178 24.3936 13.2702 24.4639 13.3405L25.182 14.0585C24.7904 14.5687 24.3337 15.0254 23.8235 15.417L23.1055 14.6995C23.0351 14.6293 22.9429 14.5851 22.8441 14.5743C22.7453 14.5634 22.6458 14.5866 22.5619 14.6399C21.9855 15.0062 21.3499 15.2697 20.6834 15.4186C20.5864 15.4403 20.4998 15.4944 20.4376 15.5719C20.3755 15.6495 20.3416 15.7458 20.3416 15.8452V16.8607C19.7039 16.9438 19.0581 16.9438 18.4204 16.8607V15.8452C18.4204 15.7457 18.3866 15.6492 18.3245 15.5716C18.2623 15.494 18.1756 15.4398 18.0786 15.4181C17.4121 15.2696 16.7766 15.0061 16.2006 14.6393C16.1166 14.5859 16.0169 14.5628 15.918 14.5738C15.8191 14.5847 15.7268 14.629 15.6565 14.6995L14.939 15.4175C14.4285 15.0263 13.9718 14.5695 13.5805 14.0591L14.298 13.3438C14.3683 13.2735 14.4126 13.1813 14.4235 13.0825C14.4345 12.9837 14.4114 12.8841 14.3582 12.8002C13.9919 12.224 13.7284 11.5885 13.5795 10.9222C13.5578 10.8251 13.5037 10.7382 13.4261 10.676C13.3484 10.6137 13.2519 10.5798 13.1523 10.5799H12.1373C12.0535 9.94239 12.0535 9.29669 12.1373 8.65923V8.65649ZM19.3813 14C20.2477 14 21.0948 13.7431 21.8152 13.2617C22.5357 12.7803 23.0972 12.0961 23.4288 11.2955C23.7604 10.495 23.8471 9.61413 23.6781 8.7643C23.509 7.91447 23.0918 7.13384 22.4791 6.52115C21.8664 5.90845 21.0858 5.4912 20.2359 5.32216C19.3861 5.15312 18.5052 5.23988 17.7047 5.57146C16.9042 5.90305 16.22 6.46458 15.7386 7.18503C15.2572 7.90549 15.0002 8.75251 15.0002 9.61899C15.0015 10.7805 15.4635 11.8941 16.2848 12.7154C17.1062 13.5367 18.2197 13.9987 19.3813 14ZM19.3813 6.11298C20.0747 6.11298 20.7525 6.3186 21.3291 6.70385C21.9056 7.08909 22.355 7.63666 22.6204 8.2773C22.8857 8.91794 22.9552 9.62288 22.8199 10.303C22.6846 10.9831 22.3507 11.6078 21.8604 12.0981C21.3701 12.5884 20.7453 12.9224 20.0652 13.0576C19.3851 13.1929 18.6802 13.1235 18.0396 12.8581C17.3989 12.5928 16.8514 12.1434 16.4661 11.5668C16.0809 10.9903 15.8752 10.3124 15.8752 9.61899C15.8757 8.68907 16.2451 7.79733 16.9025 7.13957C17.5598 6.48181 18.4513 6.11181 19.3813 6.11079V6.11298ZM17.5618 10.033C17.5212 9.99233 17.489 9.94408 17.467 9.89099C17.445 9.83789 17.4338 9.78099 17.4338 9.72353C17.4338 9.66607 17.4451 9.60918 17.4672 9.5561C17.4892 9.50302 17.5214 9.4548 17.5621 9.41419C17.6027 9.37358 17.651 9.34137 17.7041 9.3194C17.7572 9.29744 17.8141 9.28615 17.8715 9.28617C17.929 9.2862 17.9859 9.29754 18.0389 9.31955C18.092 9.34156 18.1402 9.37381 18.1809 9.41446L18.8836 10.1172L20.5625 8.19056C20.6412 8.11288 20.7464 8.06788 20.8569 8.06461C20.9674 8.06135 21.0751 8.10005 21.1582 8.17294C21.2414 8.24583 21.2939 8.34751 21.3051 8.45751C21.3163 8.56751 21.2855 8.67769 21.2188 8.76587L19.2336 11.0431C19.1942 11.0883 19.1459 11.125 19.0917 11.1507C19.0375 11.1765 18.9786 11.1909 18.9186 11.1929H18.9038C18.8464 11.1929 18.7894 11.1817 18.7363 11.1597C18.6832 11.1378 18.635 11.1055 18.5943 11.0649L17.5618 10.033Z" fill="black"/>
</g>
</g>
</svg>
