<svg width="28" height="28" viewBox="0 0 28 28" fill="none" xmlns="http://www.w3.org/2000/svg">
<g id="Frame">
<g id="Group">
<path id="Vector" d="M7.83091 11.9752L10.3876 8.89937C10.422 8.85795 10.448 8.81015 10.4639 8.7587C10.4799 8.70725 10.4855 8.65317 10.4806 8.59953C10.4757 8.5459 10.4602 8.49376 10.4351 8.4461C10.41 8.39844 10.3758 8.35619 10.3343 8.32176C10.2507 8.25224 10.1428 8.2188 10.0345 8.22879C9.92618 8.23877 9.82627 8.29138 9.75673 8.37503L7.56518 11.0116L7.08617 10.2335C7.02915 10.1408 6.93766 10.0746 6.83184 10.0495C6.72601 10.0243 6.61452 10.0422 6.52188 10.0992C6.42924 10.1562 6.36305 10.2477 6.33787 10.3535C6.31269 10.4593 6.33057 10.5708 6.3876 10.6635L7.16613 11.928C7.31334 12.167 7.65164 12.1909 7.83091 11.9752ZM6.3877 16.0775L7.16624 17.3421C7.31334 17.5811 7.65164 17.605 7.83091 17.3892L10.3876 14.3134C10.422 14.272 10.448 14.2242 10.4639 14.1727C10.4799 14.1213 10.4855 14.0672 10.4806 14.0135C10.4757 13.9599 10.4602 13.9078 10.4351 13.8601C10.41 13.8124 10.3758 13.7702 10.3343 13.7358C10.2929 13.7013 10.2451 13.6754 10.1937 13.6595C10.1422 13.6435 10.0881 13.6378 10.0345 13.6428C9.98087 13.6477 9.92873 13.6632 9.88107 13.6883C9.83341 13.7134 9.79116 13.7476 9.75673 13.789L7.56518 16.4256L7.08617 15.6475C7.05794 15.6016 7.02094 15.5618 6.9773 15.5302C6.93366 15.4986 6.88423 15.476 6.83183 15.4635C6.77944 15.4511 6.7251 15.449 6.67192 15.4576C6.61874 15.4661 6.56777 15.485 6.52191 15.5133C6.47605 15.5415 6.43619 15.5785 6.40463 15.6221C6.37306 15.6658 6.3504 15.7152 6.33794 15.7676C6.32548 15.82 6.32346 15.8743 6.332 15.9275C6.34054 15.9807 6.35947 16.0317 6.3877 16.0775ZM6.3877 21.5281L7.16624 22.7926C7.31334 23.0316 7.65164 23.0555 7.83091 22.8398L10.3876 19.7639C10.4571 19.6803 10.4906 19.5724 10.4806 19.4641C10.4706 19.3558 10.418 19.2558 10.3343 19.1863C10.2929 19.1519 10.2451 19.1259 10.1937 19.11C10.1422 19.094 10.0881 19.0884 10.0345 19.0933C9.92618 19.1033 9.82626 19.1559 9.75673 19.2396L7.56518 21.8761L7.08617 21.098C7.05828 21.0514 7.02142 21.0109 6.97773 20.9787C6.93404 20.9465 6.88438 20.9232 6.83165 20.9103C6.77892 20.8975 6.72415 20.8952 6.67053 20.9036C6.61691 20.9121 6.56549 20.9311 6.51927 20.9595C6.47304 20.988 6.43293 21.0253 6.40125 21.0694C6.36957 21.1135 6.34695 21.1634 6.33472 21.2163C6.32248 21.2692 6.32086 21.324 6.32996 21.3775C6.33905 21.431 6.35868 21.4822 6.3877 21.5281Z" fill="black"/>
<path id="Vector_2" d="M24.5273 23.155C24.4186 23.155 24.3142 23.1982 24.2373 23.2751C24.1604 23.352 24.1172 23.4563 24.1172 23.5651V26.5508C24.1172 26.8976 23.8351 27.1797 23.4883 27.1797H4.51172C4.16495 27.1797 3.88281 26.8976 3.88281 26.5508V6.09766C3.88281 5.87109 3.69917 6.5 3.47266 6.5C3.24614 6.5 3.0625 5.77343 3.0625 6V26.5508C3.0625 27.3499 3.71262 28 4.51172 28H23.4883C24.2874 28 24.9375 27.3499 24.9375 26.5508V23.5651C24.9375 23.4563 24.8943 23.352 24.8174 23.2751C24.7404 23.1982 24.6361 23.155 24.5273 23.155ZM23.4883 3.16045H21.4819V1.46562C21.4819 0.657508 20.8245 0 20.0163 0C19.2081 0 18.5507 0.657453 18.5507 1.46562V3.16045H15.4656V1.46562C15.4656 0.657453 14.8081 0 14 0C13.1919 0 12.5344 0.657453 12.5344 1.46562V3.16045H9.44929V1.46562C9.44929 0.657508 8.79184 0 7.98366 0C7.17555 0 6.51804 0.657453 6.51804 1.46562V3.16045H4.51172C3.71262 3.16045 3.0625 3.81057 3.0625 4.60966V6.66143C3.0625 6.888 3.24614 7.07159 3.47266 7.07159C3.69917 7.07159 3.88281 6.888 3.88281 6.66143V4.60966C3.88281 4.26289 4.16495 3.98076 4.51172 3.98076H6.51804V4.63203C6.51804 5.44015 7.17549 6.09766 7.98366 6.09766C8.79184 6.09766 9.44929 5.4402 9.44929 4.63203V3.98076H12.5344V4.63203C12.5344 5.44015 13.1918 6.09766 14 6.09766C14.8082 6.09766 15.4656 5.4402 15.4656 4.63203V3.98076H18.5507V4.63203C18.5507 5.44015 19.2082 6.09766 20.0163 6.09766C20.8245 6.09766 21.482 5.4402 21.482 4.63203V3.98076H23.4883C23.8351 3.98076 24.1172 4.26289 24.1172 4.60966V24C24.1172 24.2266 24.3008 24.5 24.5273 24.5C24.7539 24.5 24.9375 24.2266 24.9375 24V4.60966C24.9375 3.81057 24.2874 3.16045 23.4883 3.16045ZM8.62903 4.63203C8.62903 4.98788 8.33957 5.27734 7.98372 5.27734C7.62792 5.27734 7.33841 4.98788 7.33841 4.63203V1.46562C7.33841 1.10977 7.62787 0.820312 7.98372 0.820312C8.33957 0.820312 8.62903 1.10977 8.62903 1.46562V4.63203ZM14.6453 4.63203C14.6453 4.98788 14.3559 5.27734 14 5.27734C13.6441 5.27734 13.3547 4.98788 13.3547 4.63203V1.46562C13.3547 1.10977 13.6441 0.820312 14 0.820312C14.3559 0.820312 14.6453 1.10977 14.6453 1.46562V4.63203ZM20.6616 4.63203C20.6616 4.98788 20.3722 5.27734 20.0163 5.27734C19.6605 5.27734 19.371 4.98788 19.371 4.63203V1.46562C19.371 1.10977 19.6605 0.820312 20.0163 0.820312C20.3721 0.820312 20.6616 1.10977 20.6616 1.46562V4.63203Z" fill="black"/>
<path id="Vector_3" d="M12.1263 12.3145H20.767C21.4756 12.3145 22.0521 11.7379 22.0521 11.0293C22.0521 10.3207 21.4756 9.74414 20.767 9.74414H12.1263C11.4177 9.74414 10.8412 10.3207 10.8412 11.0293C10.8412 11.7379 11.4177 12.3145 12.1263 12.3145ZM12.1263 10.5645H20.767C21.0233 10.5645 21.2318 10.773 21.2318 11.0293C21.2318 11.2856 21.0233 11.4941 20.767 11.4941H12.1263C11.87 11.4941 11.6615 11.2856 11.6615 11.0293C11.6615 10.773 11.87 10.5645 12.1263 10.5645ZM12.1263 17.7402H20.767C21.4756 17.7402 22.0521 17.1636 22.0521 16.455C22.0521 15.7464 21.4756 15.1699 20.767 15.1699H12.1263C11.4177 15.1699 10.8412 15.7464 10.8412 16.455C10.8412 17.1636 11.4177 17.7402 12.1263 17.7402ZM12.1263 15.9902H20.767C21.0233 15.9902 21.2318 16.1987 21.2318 16.455C21.2318 16.7113 21.0233 16.9199 20.767 16.9199H12.1263C11.87 16.9199 11.6615 16.7113 11.6615 16.455C11.6615 16.1987 11.87 15.9902 12.1263 15.9902ZM12.1263 23.1658H20.767C21.4756 23.1658 22.0521 22.5893 22.0521 21.8807C22.0521 21.172 21.4756 20.5955 20.767 20.5955H12.1263C11.4177 20.5955 10.8412 21.172 10.8412 21.8807C10.8412 22.5893 11.4177 23.1658 12.1263 23.1658ZM12.1263 21.4158H20.767C21.0233 21.4158 21.2318 21.6243 21.2318 21.8807C21.2318 22.137 21.0233 22.3455 20.767 22.3455H12.1263C11.87 22.3455 11.6615 22.137 11.6615 21.8807C11.6615 21.6243 11.87 21.4158 12.1263 21.4158Z" fill="black"/>
</g>
</g>
</svg>
