<svg width="28" height="28" viewBox="0 0 28 28" fill="none" xmlns="http://www.w3.org/2000/svg">
<g id="Frame">
<g id="Group">
<path id="Vector" d="M5.7062 20.2672L10.1343 22.9302C10.1976 22.9681 10.27 22.9882 10.3438 22.9882C10.4175 22.9883 10.4898 22.9682 10.553 22.9302L12.9052 21.5164C13.0975 21.401 13.1597 21.1514 13.0441 20.959C12.9285 20.7669 12.6789 20.7045 12.4865 20.8201L10.3438 22.1079L6.12179 19.569C3.4637 18.0023 1.81249 15.1113 1.81249 12.0236V8.36324C1.81249 7.77682 2.12937 7.23468 2.63982 6.94787L4.99424 5.61943L6.11305 6.73824L4.57235 8.27915C4.41371 8.43779 4.41371 8.69495 4.57235 8.85359L7.73805 12.0195H6.89062C6.66637 12.0195 6.48436 12.2015 6.48436 12.4258C6.48436 12.65 6.66636 12.832 6.89062 12.832H8.71874C8.74535 12.832 8.77196 12.8292 8.79837 12.8239C8.81035 12.8214 8.82153 12.817 8.83311 12.8137C8.84692 12.8097 8.86093 12.8064 8.87434 12.8009C8.88734 12.7954 8.89932 12.7879 8.91171 12.7812C8.92248 12.7753 8.93386 12.7707 8.94401 12.7638C8.96595 12.7489 8.98667 12.7323 9.00536 12.7136C9.00556 12.7134 9.00577 12.7134 9.00597 12.7132C9.02485 12.6943 9.04179 12.6735 9.05655 12.6512C9.06325 12.6411 9.06792 12.6301 9.07381 12.6195C9.08072 12.6069 9.08844 12.5947 9.09392 12.5813C9.09941 12.5679 9.10266 12.5539 9.10672 12.5401C9.11018 12.5285 9.11464 12.5174 9.11709 12.5054C9.12217 12.479 9.125 12.4523 9.125 12.4257V10.5976C9.125 10.3734 8.943 10.1914 8.71875 10.1914C8.4945 10.1914 8.3125 10.3734 8.3125 10.5976V11.4448L5.43401 8.56636L6.97471 7.02545C7.13335 6.86682 7.13335 6.60965 6.97471 6.45102L5.72876 5.20504L10.0925 2.74296C10.2485 2.65481 10.4386 2.65481 10.595 2.74316L18.0483 6.94826C18.5581 7.23486 18.875 7.77701 18.875 8.36323V11.6173C18.875 11.8415 19.057 12.0235 19.2813 12.0235C19.5055 12.0235 19.6875 11.8415 19.6875 11.6173V8.36323C19.6875 7.4837 19.212 6.66998 18.447 6.24016L10.9946 2.03568C10.5952 1.81021 10.0921 1.81021 9.69315 2.03568L5.13238 4.60867L2.40441 1.8807C2.24597 1.72206 1.98841 1.72206 1.82997 1.8807C1.67134 2.03933 1.67134 2.2965 1.82997 2.45513L4.39788 5.02304L2.24109 6.23976C1.47552 6.66998 1 7.4837 1 8.36324V12.0235C1 15.3975 2.80456 18.5571 5.7062 20.2672ZM18.952 14.487C18.7387 14.4174 18.5094 14.534 18.4399 14.7475C17.8697 16.4968 16.7816 17.9991 15.2931 19.0917C15.1123 19.2245 15.0731 19.4786 15.206 19.6596C15.2856 19.7681 15.4089 19.8256 15.5338 19.8256C15.6173 19.8256 15.7014 19.8 15.7739 19.7468C17.4003 18.553 18.5894 16.9114 19.2124 14.9993C19.2819 14.7858 19.1655 14.5567 18.952 14.487Z" fill="black"/>
<path id="Vector_2" d="M10.75 5.72266C10.75 5.49841 10.568 5.31641 10.3438 5.31641C10.1195 5.31641 9.9375 5.49841 9.9375 5.72266V10.1914C9.9375 10.4157 10.1195 10.5977 10.3438 10.5977C10.568 10.5977 10.75 10.4157 10.75 10.1914V5.72266ZM10.3438 13.8477C10.1195 13.8477 9.9375 14.0297 9.9375 14.2539V18.7227C9.9375 18.9469 10.1195 19.1289 10.3438 19.1289C10.568 19.1289 10.75 18.9469 10.75 18.7227V14.2539C10.75 14.0297 10.568 13.8477 10.3438 13.8477ZM13.0685 9.49794C12.91 9.33931 12.6525 9.33931 12.494 9.49794L11.2753 10.7167C11.1167 10.8753 11.1167 11.1325 11.2753 11.2911C11.3545 11.3705 11.4585 11.4102 11.5625 11.4102C11.6665 11.4102 11.7705 11.3705 11.8497 11.2911L13.0685 10.0724C13.2271 9.91374 13.2271 9.65658 13.0685 9.49794ZM11.8497 13.1542C11.6913 12.9956 11.4337 12.9956 11.2753 13.1542C11.1167 13.3128 11.1167 13.57 11.2753 13.7286L12.494 14.9474C12.5733 15.0268 12.6773 15.0664 12.7813 15.0664C12.8853 15.0664 12.9893 15.0268 13.0685 14.9474C13.2271 14.7887 13.2271 14.5316 13.0685 14.3729L11.8497 13.1542ZM12.7813 11.8164H11.5625C11.3383 11.8164 11.1563 11.9984 11.1563 12.2227C11.1563 12.4469 11.3383 12.6289 11.5625 12.6289H12.7813C13.0055 12.6289 13.1875 12.4469 13.1875 12.2227C13.1875 11.9984 13.0055 11.8164 12.7813 11.8164ZM24.1869 21.0224C24.5647 20.253 24.7656 19.4019 24.7656 18.5195C24.7656 17.0004 24.1739 15.572 23.0998 14.4979C20.8823 12.2803 17.274 12.2803 15.0565 14.4979C13.9823 15.572 13.3906 17.0004 13.3906 18.5195C13.3906 20.0387 13.9823 21.4671 15.0565 22.5412C16.1651 23.6501 17.6215 24.2044 19.0781 24.2044C20.0336 24.2044 20.9885 23.9641 21.8459 23.487L24.1187 25.7597C24.4274 26.0685 24.8375 26.2383 25.2734 26.2383C25.7093 26.2383 26.1195 26.0683 26.4284 25.7595L26.5212 25.6667C26.83 25.358 27 24.9478 27 24.5117C27 24.0756 26.83 23.6655 26.5212 23.357L24.1869 21.0224ZM15.6309 21.9668C14.7101 21.046 14.2031 19.8218 14.2031 18.5195C14.2031 17.2173 14.7103 15.9931 15.6309 15.0723C16.5813 14.1219 17.8297 13.6468 19.0781 13.6468C20.3265 13.6468 21.5749 14.1219 22.5254 15.0723C23.4461 15.9931 23.9531 17.2173 23.9531 18.5195C23.9531 19.8218 23.4459 21.046 22.5254 21.9668C20.6245 23.8674 17.5317 23.8674 15.6309 21.9668ZM25.9466 25.0921L25.8538 25.1849C25.6984 25.3403 25.4924 25.4258 25.2734 25.4258C25.0545 25.4258 24.8485 25.3403 24.6931 25.1851L22.5392 23.0312C22.7338 22.8817 22.9217 22.7194 23.0998 22.5412C23.3468 22.2942 23.567 22.0277 23.7618 21.7464L25.9468 23.9316C26.102 24.0868 26.1875 24.2928 26.1875 24.5117C26.1875 24.7307 26.102 24.9369 25.9466 25.0921Z" fill="black"/>
</g>
</g>
</svg>
